HIERARCHY
ROOT Hips
{
	OFFSET 0.00000 0.00000 0.00000
	CHANNELS 6 Xposition Yposition Zposition Zrotation Yrotation Xrotation 
	JOINT LHipJoint
	{
		OFFSET 0 0 0
		CHANNELS 3 Zrotation Yrotation Xrotation
		JOINT LeftUpLeg
		{
			OFFSET 1.53927 -1.56553 0.51726
			CHANNELS 3 Zrotation Yrotation Xrotation
			JOINT LeftLeg
			{
				OFFSET 2.38199 -6.54447 0.00000
				CHANNELS 3 Zrotation Yrotation Xrotation
				JOINT LeftFoot
				{
					OFFSET 2.35499 -6.47028 0.00000
					CHANNELS 3 Zrotation Yrotation Xrotation
					JOINT LeftToeBase
					{
						OFFSET 0.13641 -0.37478 1.84251
						CHANNELS 3 Zrotation Yrotation Xrotation
						End Site
						{
							OFFSET 0.00000 -0.00000 0.95212
						}
					}
				}
			}
		}
	}
	JOINT RHipJoint
	{
		OFFSET 0 0 0
		CHANNELS 3 Zrotation Yrotation Xrotation
		JOINT RightUpLeg
		{
			OFFSET -1.43919 -1.56553 0.51726
			CHANNELS 3 Zrotation Yrotation Xrotation
			JOINT RightLeg
			{
				OFFSET -2.34860 -6.45274 0.00000
				CHANNELS 3 Zrotation Yrotation Xrotation
				JOINT RightFoot
				{
					OFFSET -2.25563 -6.19730 0.00000
					CHANNELS 3 Zrotation Yrotation Xrotation
					JOINT RightToeBase
					{
						OFFSET -0.19755 -0.54277 1.84912
						CHANNELS 3 Zrotation Yrotation Xrotation
						End Site
						{
							OFFSET -0.00000 -0.00000 0.97032
						}
					}
				}
			}
		}
	}
	JOINT LowerBack
	{
		OFFSET 0 0 0
		CHANNELS 3 Zrotation Yrotation Xrotation
		JOINT Spine
		{
			OFFSET -0.06402 1.88434 -0.00445
			CHANNELS 3 Zrotation Yrotation Xrotation
			JOINT Spine1
			{
				OFFSET 0.00756 1.88511 0.04237
				CHANNELS 3 Zrotation Yrotation Xrotation
				JOINT Neck
				{
					OFFSET 0 0 0
					CHANNELS 3 Zrotation Yrotation Xrotation
					JOINT Neck1
					{
						OFFSET -0.06230 1.34710 0.03308
						CHANNELS 3 Zrotation Yrotation Xrotation
						JOINT Head
						{
							OFFSET -0.02442 1.34501 -0.13654
							CHANNELS 3 Zrotation Yrotation Xrotation
							End Site
							{
								OFFSET -0.00508 1.35584 -0.05075
							}
						}
					}
				}
				JOINT LeftShoulder
				{
					OFFSET 0 0 0
					CHANNELS 3 Zrotation Yrotation Xrotation
					JOINT LeftArm
					{
						OFFSET 2.76911 0.54460 0.39412
						CHANNELS 3 Zrotation Yrotation Xrotation
						JOINT LeftForeArm
						{
							OFFSET 4.40919 -0.00000 -0.00000
							CHANNELS 3 Zrotation Yrotation Xrotation
							JOINT LeftHand
							{
								OFFSET 3.03857 -0.00000 -0.00000
								CHANNELS 3 Zrotation Yrotation Xrotation
								JOINT LeftFingerBase
								{
									OFFSET 0 0 0
									CHANNELS 3 Zrotation Yrotation Xrotation
									JOINT LeftHandIndex1
									{
										OFFSET 0.52321 -0.00000 -0.00000
										CHANNELS 3 Zrotation Yrotation Xrotation
										End Site
										{
											OFFSET 0.42182 -0.00000 -0.00000
										}
									}
								}
								JOINT LThumb
								{
									OFFSET 0 0 0
									CHANNELS 3 Zrotation Yrotation Xrotation
									End Site
									{
										OFFSET 0.42826 -0.00000 0.42826
									}
								}
							}
						}
					}
				}
				JOINT RightShoulder
				{
					OFFSET 0 0 0
					CHANNELS 3 Zrotation Yrotation Xrotation
					JOINT RightArm
					{
						OFFSET -2.99050 0.75949 0.48975
						CHANNELS 3 Zrotation Yrotation Xrotation
						JOINT RightForeArm
						{
							OFFSET -4.61969 -0.00000 -0.00000
							CHANNELS 3 Zrotation Yrotation Xrotation
							JOINT RightHand
							{
								OFFSET -3.09382 -0.00000 -0.00000
								CHANNELS 3 Zrotation Yrotation Xrotation
								JOINT RightFingerBase
								{
									OFFSET 0 0 0
									CHANNELS 3 Zrotation Yrotation Xrotation
									JOINT RightHandIndex1
									{
										OFFSET -0.50090 -0.00000 -0.00000
										CHANNELS 3 Zrotation Yrotation Xrotation
										End Site
										{
											OFFSET -0.40384 -0.00000 -0.00000
										}
									}
								}
								JOINT RThumb
								{
									OFFSET 0 0 0
									CHANNELS 3 Zrotation Yrotation Xrotation
									End Site
									{
										OFFSET -0.41000 -0.00000 0.41000
									}
								}
							}
						}
					}
				}
			}
		}
	}
}
MOTION
Frames: 15
Frame Time: .0083333
7.3782 16.4241 -1.8542 -195.1250 -79.2712 200.2010 0.0000 0.0000 0.0000 -15.3295 -10.7418 -3.8680 1.0052 6.3796 17.8898 -1.9143 24.0547 -14.4449 0.3542 3.8236 10.5810 0.0000 0.0000 0.0000 21.4813 11.5692 4.9446 -0.0242 -1.0041 2.7602 0.0863 -10.9756 -14.2682 -1.7255 -8.2692 23.5348 -4.0314 0.7269 -7.6845 -0.0525 1.0436 -4.8044 2.2797 0.5353 -0.7418 6.2638 9.8797 -0.7444 -3.5848 13.2577 23.0643 -1.2631 6.2830 7.9177 -0.0000 0.0000 0.0000 -91.3217 26.9622 24.4496 104.7682 -59.1596 -72.7535 -0.0000 0.0000 -42.1584 37.1820 14.0074 10.4038 -7.1250 0.0000 -0.0000 9.3743 47.1457 0.5006 -0.0000 0.0000 0.0000 88.3186 -12.4307 35.9115 -55.1264 54.8648 -30.3194 0.0000 -0.0000 -17.8103 -23.0031 -49.0946 17.7895 7.1250 -0.0000 -0.0000 44.0670 -78.4759 -35.4184
7.3850 16.4229 -1.8536 -194.9300 -79.1019 200.0660 0.0000 0.0000 0.0000 -15.3435 -10.7266 -3.9529 1.0127 6.4027 17.9573 -1.9142 24.0904 -14.6602 0.3836 3.9774 11.0130 0.0000 0.0000 0.0000 21.4726 11.7298 5.0017 -0.0203 -0.9201 2.5289 0.1220 -11.1905 -14.0017 -1.5548 -7.8697 22.3191 -4.0835 0.7453 -7.7029 -0.0296 1.0682 -4.8500 2.3340 0.5494 -0.7827 6.2702 9.9387 -0.8191 -3.4877 13.3155 23.4229 -1.2175 6.3058 8.0495 0.0000 -0.0000 0.0000 -91.3662 27.0489 24.4802 105.9690 -59.0142 -73.7838 -0.0000 0.0000 -42.9581 38.3001 14.6246 11.2770 -7.1250 0.0000 -0.0000 10.5163 48.0882 0.8096 0.0000 -0.0000 0.0000 88.3667 -12.0892 36.2660 -55.4734 54.9778 -30.6033 0.0000 -0.0000 -18.3834 -23.1870 -49.0912 17.9375 7.1250 -0.0000 -0.0000 43.8843 -78.5512 -35.3240
7.3912 16.4215 -1.8512 -194.8790 -79.0624 200.0090 0.0000 0.0000 0.0000 -15.3468 -10.6046 -4.0342 1.0206 6.4270 18.0286 -1.8932 23.9921 -14.7142 0.3860 3.9896 11.0473 0.0000 0.0000 0.0000 21.4845 11.7132 5.1443 -0.0146 -0.7814 2.1474 0.1702 -11.4683 -13.6118 -1.3692 -7.4057 20.9229 -4.0586 0.7482 -7.6990 -0.0497 1.0693 -4.8626 2.2992 0.5492 -0.7970 6.2833 9.9534 -0.8083 -3.4026 13.3127 23.7484 -1.1877 6.3007 8.1533 -0.0000 -0.0000 0.0000 -91.3218 27.0822 24.5821 107.1166 -58.8635 -74.7669 -0.0000 0.0000 -43.5917 38.6130 14.2560 11.1266 -7.1250 0.0000 -0.0000 10.8104 47.6950 0.7269 -0.0000 -0.0000 0.0000 88.5142 -11.7312 36.5503 -55.8373 55.0946 -30.9015 0.0000 -0.0000 -19.0593 -23.1196 -48.9702 17.8522 7.1250 -0.0000 -0.0000 43.4448 -78.4527 -34.8716
7.3930 16.4224 -1.8493 -194.6640 -78.9757 199.7670 0.0000 0.0000 0.0000 -15.3492 -10.4650 -4.0655 1.0301 6.4559 18.1131 -1.8842 23.9530 -14.7564 0.3791 3.9541 10.9476 0.0000 0.0000 0.0000 21.4931 11.6888 5.4430 -0.0082 -0.5836 1.6038 0.2079 -11.6511 -13.2315 -1.2992 -7.2214 20.3730 -3.9951 0.7796 -7.7280 -0.0779 1.1086 -4.8537 2.2376 0.5664 -0.7721 6.4655 9.9545 -0.7404 -3.5137 13.3202 24.0223 -1.2499 6.2998 8.2572 -0.0000 0.0000 0.0000 -91.1789 27.0299 24.7818 108.1721 -58.7147 -75.6696 -0.0000 0.0000 -44.1962 38.7949 14.2199 11.1703 -7.1250 0.0000 -0.0000 10.9905 47.6834 0.7361 -0.0000 0.0000 0.0000 88.6705 -11.4927 36.8188 -56.4702 55.2935 -31.4212 0.0000 -0.0000 -19.7873 -22.8665 -49.4088 17.7576 7.1250 -0.0000 -0.0000 45.5120 -78.5960 -36.7493
7.3956 16.4229 -1.8484 -194.3590 -78.8094 199.4060 0.0000 0.0000 0.0000 -15.3632 -10.3498 -4.0226 1.0332 6.4653 18.1406 -1.9083 24.0636 -14.6780 0.3694 3.9038 10.8063 0.0000 0.0000 0.0000 21.5117 11.8114 5.6105 -0.0068 -0.5335 1.4661 0.2132 -11.6439 -13.1159 -1.3207 -7.2785 20.5430 -3.9999 0.7998 -7.6920 -0.0711 1.1361 -4.8265 2.2488 0.5806 -0.7658 6.5187 10.0217 -0.8856 -3.4394 13.3884 24.3781 -1.2133 6.3291 8.4082 0.0000 -0.0000 0.0000 -91.1448 26.9451 24.8288 109.1909 -58.5616 -76.5396 -0.0000 0.0000 -44.8768 39.6335 14.6812 11.8550 -7.1250 0.0000 -0.0000 11.8717 48.4027 1.0096 0.0000 -0.0000 0.0000 88.7489 -11.2775 37.2557 -57.2125 55.5202 -32.0322 0.0000 -0.0000 -20.5064 -22.9491 -49.6386 17.8818 7.1250 -0.0000 -0.0000 46.4339 -78.7563 -37.6744
7.4013 16.4233 -1.8469 -194.0980 -78.7228 199.1100 0.0000 0.0000 0.0000 -15.3470 -10.2793 -3.9875 1.0257 6.4424 18.0737 -1.9291 24.1595 -14.6162 0.3898 4.0092 11.1025 0.0000 0.0000 0.0000 21.5486 11.9744 5.4873 -0.0103 -0.6567 1.8046 0.1932 -11.5446 -13.3189 -1.3714 -7.4112 20.9393 -3.9597 0.7795 -7.6406 -0.0891 1.1051 -4.8217 2.2048 0.5644 -0.7856 6.6270 10.0749 -0.9706 -3.3904 13.4378 24.6706 -1.1993 6.3545 8.5325 0.0000 -0.0000 0.0000 -91.1709 26.8417 24.7553 110.0764 -58.4209 -77.2945 -0.0000 0.0000 -45.4926 40.5914 14.9775 12.4862 -7.1250 0.0000 -0.0000 12.8819 48.9520 1.2748 0.0000 -0.0000 0.0000 88.8754 -11.0594 37.7435 -58.0035 55.7540 -32.6852 0.0000 -0.0000 -21.2718 -23.2375 -49.9145 18.1858 7.1250 -0.0000 -0.0000 47.4283 -79.0243 -38.7600
7.4048 16.4236 -1.8431 -194.2610 -78.6774 199.3060 0.0000 0.0000 0.0000 -15.4074 -10.3727 -3.9720 1.0130 6.4037 17.9603 -1.9680 24.3289 -14.4405 0.3232 3.6543 10.1061 0.0000 0.0000 0.0000 21.4854 12.1168 5.2350 -0.0156 -0.8073 2.2189 0.1814 -11.5279 -13.5099 -1.3225 -7.2833 20.5575 -3.9473 0.7453 -7.6276 -0.1437 1.0507 -4.9181 2.1368 0.5372 -0.8878 6.8835 10.0760 -0.9263 -3.4775 13.4315 25.0448 -1.2639 6.3518 8.6809 -0.0000 0.0000 0.0000 -91.1562 26.8361 24.7305 110.8449 -58.2928 -77.9487 -0.0000 0.0000 -45.9752 41.0543 15.4448 13.0585 -7.1250 0.0000 -0.0000 13.4132 49.6240 1.5542 -0.0000 0.0000 0.0000 89.0349 -11.0186 38.1598 -58.8041 55.9828 -33.3479 0.0000 -0.0000 -22.0848 -23.2462 -50.1659 18.2555 7.1250 -0.0000 -0.0000 48.5762 -79.1564 -39.8715
7.4048 16.4242 -1.8383 -194.4010 -78.5657 199.3910 0.0000 0.0000 0.0000 -15.5264 -10.4782 -3.8007 1.0021 6.3703 17.8626 -2.0213 24.5993 -14.4464 0.3188 3.6292 10.0359 0.0000 0.0000 0.0000 21.4154 12.2658 5.1365 -0.0210 -0.9353 2.5709 0.1708 -11.5003 -13.6561 -1.2714 -7.1466 20.1505 -3.9817 0.7587 -7.6065 -0.1640 1.0675 -4.9432 2.1356 0.5466 -0.9272 6.8085 10.0353 -1.1181 -3.2531 13.3180 25.5780 -1.1713 6.2904 8.8731 0.0000 0.0000 0.0000 -91.1485 26.7952 24.7866 111.6741 -58.1484 -78.6537 -0.0000 0.0000 -46.3482 45.1495 25.3078 23.2541 -7.1250 0.0000 -0.0000 20.0384 62.7205 8.8108 0.0000 0.0000 0.0000 89.1760 -10.8538 38.4502 -59.4532 56.1625 -33.8865 0.0000 -0.0000 -22.7657 -23.1674 -49.9784 18.1444 7.1250 -0.0000 -0.0000 47.7745 -79.0277 -39.0632
7.4064 16.4235 -1.8346 -194.3690 -78.4108 199.2540 0.0000 0.0000 0.0000 -15.6280 -10.4589 -3.6109 0.9955 6.3497 17.8024 -2.0540 24.7857 -14.5902 0.3235 3.6558 10.1103 0.0000 0.0000 0.0000 21.3793 12.3841 5.2467 -0.0220 -0.9568 2.6298 0.1657 -11.4789 -13.7114 -1.2886 -7.1930 20.2883 -4.0114 0.8138 -7.6243 -0.1616 1.1501 -4.8483 2.1613 0.5872 -0.8250 6.5986 9.9919 -1.3725 -2.9998 13.2074 25.9172 -1.0473 6.2285 8.9973 0.0000 0.0000 0.0000 -91.1338 26.5377 24.9198 112.3612 -58.0237 -79.2369 -0.0000 0.0000 -46.6268 43.9900 21.9557 19.8463 -7.1250 0.0000 -0.0000 17.7393 58.3521 5.9135 0.0000 0.0000 0.0000 89.2893 -10.4310 38.6897 -59.9641 56.3004 -34.3112 0.0000 -0.0000 -23.4383 -23.3742 -50.1675 18.3609 7.1250 -0.0000 -0.0000 48.4878 -79.2116 -39.8419
7.4096 16.4227 -1.8321 -194.1760 -78.3339 199.0750 0.0000 0.0000 0.0000 -15.6209 -10.3814 -3.6463 0.9921 6.3392 17.7719 -2.0690 24.8566 -14.5696 0.2863 3.4409 9.5088 0.0000 0.0000 0.0000 21.3837 12.4334 5.3461 -0.0187 -0.8826 2.4258 0.1749 -11.5259 -13.6252 -1.3136 -7.2596 20.4866 -3.9912 0.8228 -7.6722 -0.1467 1.1627 -4.8467 2.1670 0.5925 -0.7975 6.3659 9.9848 -1.3439 -2.7802 13.1619 26.1000 -0.9431 6.1986 9.0202 0.0000 -0.0000 0.0000 -91.1224 26.3928 25.0176 113.0009 -57.9035 -79.7791 -0.0000 0.0000 -46.8043 49.4414 34.5256 33.5140 -7.1250 0.0000 -0.0000 32.6755 74.5136 23.3438 0.0000 -0.0000 0.0000 89.3546 -10.2417 38.9957 -60.6853 56.4898 -34.9119 0.0000 -0.0000 -24.0313 -22.9266 -51.7117 18.3654 7.1250 -0.0000 -0.0000 56.4044 -79.6990 -47.3105
7.4124 16.4236 -1.8296 -193.4870 -78.2998 198.4170 0.0000 0.0000 0.0000 -15.4892 -10.3940 -3.6507 0.9869 6.3231 17.7247 -2.0902 24.9613 -14.5688 0.2944 3.4890 9.6432 0.0000 0.0000 0.0000 21.5083 12.5156 5.3493 -0.0178 -0.8603 2.3646 0.1844 -11.5832 -13.5516 -1.3017 -7.2280 20.3926 -3.8674 0.8101 -7.6145 -0.0963 1.1294 -4.9425 2.1455 0.5759 -0.9246 5.8723 9.9379 -1.1565 -2.3084 13.0224 26.2694 -0.7349 6.1239 8.9666 0.0000 -0.0000 0.0000 -91.1594 26.5042 25.0494 113.8313 -57.7414 -80.4820 -0.0000 0.0000 -46.9020 43.0005 16.0296 14.4402 -7.1250 0.0000 -0.0000 15.5685 50.7682 2.2599 0.0000 -0.0000 0.0000 89.4068 -10.3260 39.3092 -61.6829 56.7420 -35.7449 0.0000 -0.0000 -24.4300 -22.7387 -48.0779 17.3193 7.1250 -0.0000 -0.0000 40.3291 -77.7502 -31.7109
7.4155 16.4241 -1.8288 -193.0450 -78.1379 197.9200 0.0000 0.0000 0.0000 -15.4672 -10.4002 -3.5009 0.9811 6.3051 17.6723 -2.0973 25.0397 -14.8468 0.3612 3.8607 10.6851 0.0000 0.0000 0.0000 21.5634 12.6630 5.4741 -0.0167 -0.8349 2.2946 0.1914 -11.6180 -13.4835 -1.3053 -7.2375 20.4210 -3.8426 0.8542 -7.5110 -0.0681 1.1812 -4.9668 2.1619 0.6036 -1.0102 5.6074 9.8765 -1.2272 -2.0628 12.8919 26.5667 -0.6174 6.0479 9.0402 -0.0000 -0.0000 0.0000 -91.1650 26.5421 25.1754 114.7220 -57.5598 -81.2344 -0.0000 0.0000 -47.0804 43.2713 15.1935 13.8594 -7.1250 0.0000 -0.0000 15.7236 49.7715 1.8912 -0.0000 -0.0000 0.0000 89.4796 -10.2381 39.5893 -62.5538 56.9529 -36.4741 0.0000 -0.0000 -25.0128 -22.5702 -46.3056 16.7270 7.1250 -0.0000 -0.0000 34.5284 -76.4783 -26.0962
7.4160 16.4269 -1.8283 -193.1580 -77.9889 197.9590 0.0000 0.0000 0.0000 -15.5713 -10.3828 -3.3507 0.9781 6.2958 17.6452 -2.0933 25.0563 -15.0699 0.3867 3.9932 11.0575 0.0000 0.0000 0.0000 21.4779 12.6916 5.7513 -0.0131 -0.7390 2.0308 0.1725 -11.4544 -13.5451 -1.5278 -7.8043 22.1212 -3.8656 0.9031 -7.4937 -0.1201 1.2501 -4.9176 2.1255 0.6374 -0.9726 5.7923 9.8779 -1.6242 -2.1166 12.8761 27.1173 -0.6323 6.0298 9.3263 0.0000 0.0000 0.0000 -91.0588 26.4854 25.3704 115.6501 -57.3619 -82.0169 -0.0000 0.0000 -47.3366 44.4156 18.0795 16.9129 -7.1250 0.0000 -0.0000 17.5270 53.6789 3.8318 0.0000 0.0000 0.0000 89.6555 -10.0100 39.8263 -63.3268 57.1332 -37.1227 0.0000 -0.0000 -25.7175 -22.6645 -46.5562 16.8665 7.1250 -0.0000 -0.0000 35.1970 -76.6948 -26.7751
7.4153 16.4300 -1.8255 -192.9370 -77.9510 197.7260 0.0000 0.0000 0.0000 -15.5639 -10.3745 -3.2980 0.9746 6.2849 17.6132 -2.1187 25.1594 -14.9428 0.3558 3.8323 10.6053 0.0000 0.0000 0.0000 21.4865 12.7287 5.7914 -0.0137 -0.7571 2.0807 0.1404 -11.2244 -13.7347 -1.7313 -8.2825 23.5754 -3.7452 0.9348 -7.5079 -0.1723 1.2852 -4.9198 2.0066 0.6511 -0.9644 5.9898 9.8576 -1.8060 -2.1254 12.8179 27.5337 -0.6535 6.0036 9.5232 0.0000 0.0000 0.0000 -90.8897 26.4457 25.5925 116.5238 -57.1673 -82.7519 -0.0000 0.0000 -47.6151 46.6531 23.6991 23.0654 -7.1250 0.0000 -0.0000 21.8314 61.2460 8.8757 0.0000 0.0000 0.0000 89.8605 -9.8718 40.0194 -64.2357 57.3369 -37.8870 0.0000 -0.0000 -26.2472 -22.6791 -48.6104 17.4066 7.1250 -0.0000 -0.0000 42.4197 -78.0554 -33.6906
7.4207 16.4302 -1.8206 -192.4920 -77.9813 197.3000 0.0000 0.0000 0.0000 -15.4609 -10.3825 -3.3447 0.9740 6.2827 17.6069 -2.1394 25.2319 -14.7636 0.3447 3.7725 10.4374 0.0000 0.0000 0.0000 21.5825 12.7760 5.6784 -0.0157 -0.8086 2.2224 0.1422 -11.2400 -13.7279 -1.6938 -8.1969 23.3137 -3.6032 0.9488 -7.4186 -0.1813 1.2877 -4.9918 1.9154 0.6509 -1.0842 6.1024 9.7559 -1.6308 -2.2120 12.6764 27.6778 -0.7224 5.9333 9.5511 -0.0000 0.0000 0.0000 -90.7688 26.4294 25.8393 117.3563 -56.9742 -83.4506 -0.0000 0.0000 -47.9403 49.7971 30.2414 30.7917 -7.1250 0.0000 -0.0000 30.3314 69.8999 18.6368 -0.0000 0.0000 0.0000 89.9820 -9.7440 40.2400 -65.0559 57.5132 -38.5781 0.0000 -0.0000 -26.7603 -22.4400 -51.2463 17.8520 7.1250 -0.0000 -0.0000 54.2858 -79.3094 -45.0455
